<svg xmlns="http://www.w3.org/2000/svg" width="311" height="67" fill="none" viewBox="0 0 311 67">
  <mask id="a" width="311" height="67" x=".248" y=".348" fill="#000" maskUnits="userSpaceOnUse">
    <path fill="#fff" d="M.248.348h311v67h-311z"/>
    <path d="M39.484 16.496v7.124h-9.672V53H20.92V23.62h-9.672v-7.124h28.236zM71.299 38.024c0 .832-.052 1.699-.156 2.6H51.019c.138 1.803.71 3.19 1.716 4.16 1.04.936 2.305 1.404 3.796 1.404 2.218 0 3.761-.936 4.628-2.808h9.464a12.817 12.817 0 01-2.652 5.148c-1.248 1.525-2.826 2.721-4.732 3.588-1.907.867-4.039 1.3-6.396 1.3-2.843 0-5.374-.607-7.592-1.82-2.219-1.213-3.952-2.947-5.2-5.2-1.248-2.253-1.872-4.888-1.872-7.904s.606-5.65 1.82-7.904c1.248-2.253 2.981-3.987 5.2-5.2 2.218-1.213 4.766-1.82 7.644-1.82 2.808 0 5.304.59 7.488 1.768 2.184 1.179 3.882 2.86 5.096 5.044 1.248 2.184 1.872 4.732 1.872 7.644zm-9.1-2.34c0-1.525-.52-2.739-1.56-3.64-1.04-.901-2.34-1.352-3.9-1.352-1.491 0-2.756.433-3.796 1.3-1.006.867-1.63 2.097-1.872 3.692h11.128zM74.222 38.492c0-3.016.606-5.65 1.82-7.904 1.248-2.253 2.964-3.987 5.148-5.2 2.218-1.213 4.749-1.82 7.592-1.82 3.64 0 6.673.953 9.1 2.86 2.461 1.907 4.073 4.593 4.836 8.06h-9.464c-.798-2.219-2.34-3.328-4.628-3.328-1.63 0-2.93.641-3.9 1.924-.971 1.248-1.456 3.05-1.456 5.408 0 2.357.485 4.177 1.456 5.46.97 1.248 2.27 1.872 3.9 1.872 2.288 0 3.83-1.11 4.628-3.328h9.464c-.763 3.397-2.375 6.067-4.836 8.008-2.462 1.941-5.495 2.912-9.1 2.912-2.843 0-5.374-.607-7.592-1.82-2.184-1.213-3.9-2.947-5.148-5.2-1.214-2.253-1.82-4.888-1.82-7.904zM125.31 23.672c3.328 0 5.997 1.11 8.008 3.328 2.011 2.184 3.016 5.2 3.016 9.048V53h-8.84V37.244c0-1.941-.503-3.45-1.508-4.524-1.005-1.075-2.357-1.612-4.056-1.612-1.699 0-3.051.537-4.056 1.612-1.005 1.075-1.508 2.583-1.508 4.524V53h-8.892V14.52h8.892v13.364c.901-1.283 2.132-2.305 3.692-3.068 1.56-.763 3.311-1.144 5.252-1.144zM161.129 53l-7.592-13.78h-2.132V53h-8.892V16.496h14.924c2.877 0 5.321.503 7.332 1.508 2.045 1.005 3.571 2.392 4.576 4.16 1.005 1.733 1.508 3.675 1.508 5.824 0 2.427-.693 4.593-2.08 6.5-1.352 1.907-3.363 3.259-6.032 4.056L171.165 53h-10.036zm-9.724-20.072h5.512c1.629 0 2.843-.399 3.64-1.196.832-.797 1.248-1.924 1.248-3.38 0-1.387-.416-2.479-1.248-3.276-.797-.797-2.011-1.196-3.64-1.196h-5.512v9.048zM174.667 38.44c0-2.981.555-5.599 1.664-7.852 1.144-2.253 2.687-3.987 4.628-5.2 1.941-1.213 4.108-1.82 6.5-1.82 2.045 0 3.831.416 5.356 1.248 1.56.832 2.756 1.924 3.588 3.276v-4.108h8.892V53h-8.892v-4.108c-.867 1.352-2.08 2.444-3.64 3.276-1.525.832-3.311 1.248-5.356 1.248-2.357 0-4.507-.607-6.448-1.82-1.941-1.248-3.484-2.999-4.628-5.252-1.109-2.288-1.664-4.923-1.664-7.904zm21.736.052c0-2.219-.624-3.97-1.872-5.252-1.213-1.283-2.704-1.924-4.472-1.924-1.768 0-3.276.641-4.524 1.924-1.213 1.248-1.82 2.981-1.82 5.2 0 2.219.607 3.987 1.82 5.304 1.248 1.283 2.756 1.924 4.524 1.924 1.768 0 3.259-.641 4.472-1.924 1.248-1.283 1.872-3.033 1.872-5.252zM209.96 38.44c0-2.981.555-5.599 1.664-7.852 1.144-2.253 2.687-3.987 4.628-5.2 1.941-1.213 4.108-1.82 6.5-1.82 1.907 0 3.64.399 5.2 1.196 1.595.797 2.843 1.872 3.744 3.224V14.52h8.892V53h-8.892v-4.16c-.832 1.387-2.028 2.496-3.588 3.328-1.525.832-3.311 1.248-5.356 1.248-2.392 0-4.559-.607-6.5-1.82-1.941-1.248-3.484-2.999-4.628-5.252-1.109-2.288-1.664-4.923-1.664-7.904zm21.736.052c0-2.219-.624-3.97-1.872-5.252-1.213-1.283-2.704-1.924-4.472-1.924-1.768 0-3.276.641-4.524 1.924-1.213 1.248-1.82 2.981-1.82 5.2 0 2.219.607 3.987 1.82 5.304 1.248 1.283 2.756 1.924 4.524 1.924 1.768 0 3.259-.641 4.472-1.924 1.248-1.283 1.872-3.033 1.872-5.252zM251.493 20.968c-1.56 0-2.843-.45-3.848-1.352-.971-.936-1.456-2.08-1.456-3.432 0-1.387.485-2.53 1.456-3.432 1.005-.936 2.288-1.404 3.848-1.404 1.525 0 2.773.468 3.744 1.404 1.005.901 1.508 2.045 1.508 3.432 0 1.352-.503 2.496-1.508 3.432-.971.901-2.219 1.352-3.744 1.352zm4.42 3.016V53h-8.892V23.984h8.892zM279.517 53l-5.564-8.06-4.68 8.06h-9.62l9.568-14.82-9.828-14.196h9.984l5.564 8.008 4.68-8.008h9.62l-9.724 14.612L289.501 53h-9.984z"/>
  </mask>
  <path fill="url(#paint0_linear_73_5)" d="M39.484 16.496v7.124h-9.672V53H20.92V23.62h-9.672v-7.124h28.236z"/>
  <path fill="url(#paint1_linear_73_5)" d="M71.299 38.024c0 .832-.052 1.699-.156 2.6H51.019c.138 1.803.71 3.19 1.716 4.16 1.04.936 2.305 1.404 3.796 1.404 2.218 0 3.761-.936 4.628-2.808h9.464a12.817 12.817 0 01-2.652 5.148c-1.248 1.525-2.826 2.721-4.732 3.588-1.907.867-4.039 1.3-6.396 1.3-2.843 0-5.374-.607-7.592-1.82-2.219-1.213-3.952-2.947-5.2-5.2-1.248-2.253-1.872-4.888-1.872-7.904s.606-5.65 1.82-7.904c1.248-2.253 2.981-3.987 5.2-5.2 2.218-1.213 4.766-1.82 7.644-1.82 2.808 0 5.304.59 7.488 1.768 2.184 1.179 3.882 2.86 5.096 5.044 1.248 2.184 1.872 4.732 1.872 7.644zm-9.1-2.34c0-1.525-.52-2.739-1.56-3.64-1.04-.901-2.34-1.352-3.9-1.352-1.491 0-2.756.433-3.796 1.3-1.006.867-1.63 2.097-1.872 3.692h11.128z"/>
  <path fill="url(#paint2_linear_73_5)" d="M74.222 38.492c0-3.016.606-5.65 1.82-7.904 1.248-2.253 2.964-3.987 5.148-5.2 2.218-1.213 4.749-1.82 7.592-1.82 3.64 0 6.673.953 9.1 2.86 2.461 1.907 4.073 4.593 4.836 8.06h-9.464c-.798-2.219-2.34-3.328-4.628-3.328-1.63 0-2.93.641-3.9 1.924-.971 1.248-1.456 3.05-1.456 5.408 0 2.357.485 4.177 1.456 5.46.97 1.248 2.27 1.872 3.9 1.872 2.288 0 3.83-1.11 4.628-3.328h9.464c-.763 3.397-2.375 6.067-4.836 8.008-2.462 1.941-5.495 2.912-9.1 2.912-2.843 0-5.374-.607-7.592-1.82-2.184-1.213-3.9-2.947-5.148-5.2-1.214-2.253-1.82-4.888-1.82-7.904z"/>
  <path fill="url(#paint3_linear_73_5)" d="M125.31 23.672c3.328 0 5.997 1.11 8.008 3.328 2.011 2.184 3.016 5.2 3.016 9.048V53h-8.84V37.244c0-1.941-.503-3.45-1.508-4.524-1.005-1.075-2.357-1.612-4.056-1.612-1.699 0-3.051.537-4.056 1.612-1.005 1.075-1.508 2.583-1.508 4.524V53h-8.892V14.52h8.892v13.364c.901-1.283 2.132-2.305 3.692-3.068 1.56-.763 3.311-1.144 5.252-1.144z"/>
  <path fill="url(#paint4_linear_73_5)" d="M161.129 53l-7.592-13.78h-2.132V53h-8.892V16.496h14.924c2.877 0 5.321.503 7.332 1.508 2.045 1.005 3.571 2.392 4.576 4.16 1.005 1.733 1.508 3.675 1.508 5.824 0 2.427-.693 4.593-2.08 6.5-1.352 1.907-3.363 3.259-6.032 4.056L171.165 53h-10.036zm-9.724-20.072h5.512c1.629 0 2.843-.399 3.64-1.196.832-.797 1.248-1.924 1.248-3.38 0-1.387-.416-2.479-1.248-3.276-.797-.797-2.011-1.196-3.64-1.196h-5.512v9.048z"/>
  <path fill="url(#paint5_linear_73_5)" d="M174.667 38.44c0-2.981.555-5.599 1.664-7.852 1.144-2.253 2.687-3.987 4.628-5.2 1.941-1.213 4.108-1.82 6.5-1.82 2.045 0 3.831.416 5.356 1.248 1.56.832 2.756 1.924 3.588 3.276v-4.108h8.892V53h-8.892v-4.108c-.867 1.352-2.08 2.444-3.64 3.276-1.525.832-3.311 1.248-5.356 1.248-2.357 0-4.507-.607-6.448-1.82-1.941-1.248-3.484-2.999-4.628-5.252-1.109-2.288-1.664-4.923-1.664-7.904zm21.736.052c0-2.219-.624-3.97-1.872-5.252-1.213-1.283-2.704-1.924-4.472-1.924-1.768 0-3.276.641-4.524 1.924-1.213 1.248-1.82 2.981-1.82 5.2 0 2.219.607 3.987 1.82 5.304 1.248 1.283 2.756 1.924 4.524 1.924 1.768 0 3.259-.641 4.472-1.924 1.248-1.283 1.872-3.033 1.872-5.252z"/>
  <path fill="url(#paint6_linear_73_5)" d="M209.96 38.44c0-2.981.555-5.599 1.664-7.852 1.144-2.253 2.687-3.987 4.628-5.2 1.941-1.213 4.108-1.82 6.5-1.82 1.907 0 3.64.399 5.2 1.196 1.595.797 2.843 1.872 3.744 3.224V14.52h8.892V53h-8.892v-4.16c-.832 1.387-2.028 2.496-3.588 3.328-1.525.832-3.311 1.248-5.356 1.248-2.392 0-4.559-.607-6.5-1.82-1.941-1.248-3.484-2.999-4.628-5.252-1.109-2.288-1.664-4.923-1.664-7.904zm21.736.052c0-2.219-.624-3.97-1.872-5.252-1.213-1.283-2.704-1.924-4.472-1.924-1.768 0-3.276.641-4.524 1.924-1.213 1.248-1.82 2.981-1.82 5.2 0 2.219.607 3.987 1.82 5.304 1.248 1.283 2.756 1.924 4.524 1.924 1.768 0 3.259-.641 4.472-1.924 1.248-1.283 1.872-3.033 1.872-5.252z"/>
  <path fill="url(#paint7_linear_73_5)" d="M251.493 20.968c-1.56 0-2.843-.45-3.848-1.352-.971-.936-1.456-2.08-1.456-3.432 0-1.387.485-2.53 1.456-3.432 1.005-.936 2.288-1.404 3.848-1.404 1.525 0 2.773.468 3.744 1.404 1.005.901 1.508 2.045 1.508 3.432 0 1.352-.503 2.496-1.508 3.432-.971.901-2.219 1.352-3.744 1.352zm4.42 3.016V53h-8.892V23.984h8.892z"/>
  <path fill="url(#paint8_linear_73_5)" d="M279.517 53l-5.564-8.06-4.68 8.06h-9.62l9.568-14.82-9.828-14.196h9.984l5.564 8.008 4.68-8.008h9.62l-9.724 14.612L289.501 53h-9.984z"/>
  <path fill="#fff" d="M39.484 16.496h11v-11h-11v11zm0 7.124v11h11v-11h-11zm-9.672 0v-11h-11v11h11zm0 29.38v11h11V53h-11zm-8.892 0h-11v11h11V53zm0-29.38h11v-11h-11v11zm-9.672 0h-11v11h11v-11zm0-7.124v-11h-11v11h11zm59.895 24.128v11h9.803l1.124-9.74-10.927-1.26zm-20.124 0v-11H39.14l.911 11.844 10.968-.844zm1.716 4.16l-7.64 7.913.138.134.143.13 7.359-8.177zm8.424-1.404v-11h-7.03l-2.952 6.379 9.982 4.621zm9.464 0l10.66 2.713 3.49-13.713h-14.15v11zm-2.652 5.148l-8.42-7.08-.047.057-.047.057 8.514 6.966zm-18.72 3.068l-5.278 9.651 5.278-9.651zm-5.2-5.2l9.622-5.33-9.622 5.33zm-.052-15.808l-9.623-5.33-.032.058-.03.057 9.685 5.215zm5.2-5.2l5.278 9.651-5.278-9.651zm15.132-.052l-5.225 9.68 5.225-9.68zm5.096 5.044l-9.616 5.342.032.058.033.057 9.55-5.457zm-7.228 5.304v11h11v-11h-11zm-1.56-3.64l7.204-8.313-7.204 8.313zm-7.696-.052l-7.042-8.45-.071.058-.07.06 7.183 8.332zm-1.872 3.692l-10.875-1.655-1.926 12.655h12.8v-11zm24.97-5.096l-9.622-5.33-.032.058-.03.057 9.685 5.215zm5.149-5.2l-5.278-9.651-.032.018-.032.017 5.342 9.616zm16.692 1.04l-6.796 8.65.03.023.03.023 6.736-8.696zm4.836 8.06v11h13.683l-2.94-13.364-10.743 2.364zm-9.464 0l-10.352 3.72 2.616 7.28h7.736v-11zm-8.528-1.404l8.683 6.753.044-.057.044-.058-8.771-6.638zm0 10.868l-8.772 6.638.044.058.045.057 8.683-6.753zm8.528-1.456v-11h-7.736l-2.616 7.28 10.352 3.72zm9.464 0l10.733 2.41 3.01-13.41h-13.743v11zm-4.836 8.008l-6.813-8.637 6.813 8.637zM81.19 51.596l-5.342 9.616.032.017.032.018 5.278-9.651zm-5.148-5.2l-9.686 5.215.031.058.032.056 9.623-5.329zM133.318 27l-8.151 7.387.029.032.029.031 8.093-7.45zm3.016 26v11h11V53h-11zm-8.84 0h-11v11h11V53zm-1.508-20.28l-8.033 7.515 8.033-7.515zm-8.112 0l8.033 7.515-8.033-7.515zM116.366 53v11h11V53h-11zm-8.892 0h-11v11h11V53zm0-38.48v-11h-11v11h11zm8.892 0h11v-11h-11v11zm0 13.364h-11V62.67l20-28.462-9-6.324zm3.692-3.068l-4.831-9.882 4.831 9.882zM161.129 53l-9.634 5.308L154.63 64h6.499V53zm-7.592-13.78l9.635-5.308-3.136-5.692h-6.499v11zm-2.132 0v-11h-11v11h11zm0 13.78v11h11V53h-11zm-8.892 0h-11v11h11V53zm0-36.504v-11h-11v11h11zm22.256 1.508l-4.919 9.839.033.016.034.017 4.852-9.872zm4.576 4.16l-9.562 5.437.023.041.024.04 9.515-5.518zm-.572 12.324l-8.896-6.47-.039.053-.038.054 8.973 6.363zm-6.032 4.056l-3.148-10.54-13.394 4 7.038 12.078 9.504-5.538zM171.165 53v11h19.142l-9.638-16.538L171.165 53zm-19.76-20.072h-11v11h11v-11zm9.152-1.196l-7.611-7.942-.084.081-.083.083 7.778 7.778zm0-6.656l-7.778 7.778.083.083.084.08 7.611-7.941zm-9.152-1.196v-11h-11v11h11zm24.926 6.708l-9.808-4.98-.031.06-.03.062 9.869 4.858zm4.628-5.2l5.83 9.328-5.83-9.328zm11.856-.572l-5.267 9.657.045.025.046.024 5.176-9.706zm3.588 3.276l-9.368 5.765 20.368 33.099V28.092h-11zm0-4.108v-11h-11v11h11zm8.892 0h11v-11h-11v11zm0 29.016v11h11V53h-11zm-8.892 0h-11v11h11V53zm0-4.108h11V11.349l-20.261 31.607 9.261 5.936zm-3.64 3.276l-5.176-9.706-.046.024-.045.025 5.267 9.657zm-11.804-.572l-5.948 9.253.059.038.059.037 5.83-9.328zm-4.628-5.252l-9.898 4.799.044.09.046.09 9.808-4.979zm18.2-13.104l-7.991 7.56.053.055.054.056 7.884-7.671zm-8.996 0l-7.884-7.67-.003.002 7.887 7.668zm0 10.504l-8.091 7.452.102.111.105.108 7.884-7.671zm8.996 0l-7.884-7.67-.054.055-.053.056 7.991 7.559zm17.093-13.156l-9.808-4.98-.031.06-.03.062 9.869 4.858zm4.628-5.2l5.83 9.328-5.83-9.328zm11.7-.624l-5.006 9.795.043.022.044.022 4.919-9.839zm3.744 3.224l-9.153 6.102 20.153 30.228v-36.33h-11zm0-13.468v-11h-11v11h11zm8.892 0h11v-11h-11v11zm0 38.48v11h11V53h-11zm-8.892 0h-11v11h11V53zm0-4.16h11V9.126l-20.432 34.055 9.432 5.659zm-3.588 3.328l-5.177-9.706-.045.024-.045.025 5.267 9.657zm-11.856-.572l-5.948 9.253.059.038.059.037 5.83-9.328zm-4.628-5.252l-9.898 4.799.044.09.046.09 9.808-4.979zm18.2-13.104l-7.991 7.56.053.055.054.056 7.884-7.671zm-8.996 0l-7.884-7.67-.003.002 7.887 7.668zm0 10.504l-8.091 7.452.102.111.105.108 7.884-7.671zm8.996 0l-7.884-7.67-.054.055-.053.056 7.991 7.559zm17.821-24.128l-7.636 7.918.144.139.149.133 7.343-8.19zm0-6.864l7.485 8.06.005-.004.006-.005-7.496-8.051zm7.592 0l-7.636 7.918.144.139.149.133 7.343-8.19zm0 6.864l7.485 8.06.005-.004.006-.005-7.496-8.051zm.676 4.368h11v-11h-11v11zm0 29.016v11h11V53h-11zm-8.892 0h-11v11h11V53zm0-29.016v-11h-11v11h11zM279.517 53l-9.053 6.25 3.28 4.75h5.773V53zm-5.564-8.06l9.052-6.25-9.854-14.275-8.711 15.002 9.513 5.523zm-4.68 8.06v11h6.333l3.18-5.477L269.273 53zm-9.62 0l-9.241-5.966L239.458 64h20.195V53zm9.568-14.82l9.241 5.966 3.99-6.18-4.187-6.047-9.044 6.261zm-9.828-14.196v-11h-20.994l11.95 17.261 9.044-6.261zm9.984 0l9.033-6.277-3.281-4.723h-5.752v11zm5.564 8.008l-9.034 6.277 9.835 14.154 8.696-14.88-9.497-5.551zm4.68-8.008v-11h-6.312l-3.185 5.45 9.497 5.55zm9.62 0l9.157 6.094 11.376-17.094h-20.533v11zm-9.724 14.612l-9.158-6.094-4.139 6.22 4.256 6.14 9.041-6.266zM289.501 53v11h21.008l-11.968-17.266-9.04 6.266zM28.484 16.496v7.124h22v-7.124h-22zm11-3.876h-9.672v22h9.672v-22zm-20.672 11V53h22V23.62h-22zm11 18.38H20.92v22h8.892V42zm2.108 11V23.62h-22V53h22zm-11-40.38h-9.672v22h9.672v-22zm1.328 11v-7.124h-22v7.124h22zm-11 3.876h28.236v-22H11.248v22zm49.05 10.528c0 .375-.023.82-.083 1.34l21.855 2.52a33.69 33.69 0 00.229-3.86h-22zm10.845-8.4H51.019v22h20.124v-22zM40.05 41.468c.283 3.678 1.588 7.893 5.043 11.23L60.375 36.87a5.855 5.855 0 011.346 1.95c.234.568.264.937.265.96l-21.935 1.687zm5.325 11.492c3.2 2.88 7.14 4.228 11.155 4.228v-22c.42 0 1.038.07 1.749.332.721.267 1.338.66 1.813 1.088L45.376 52.96zm11.155 4.228c2.66 0 5.68-.57 8.527-2.298 2.898-1.758 4.867-4.262 6.083-6.889L51.177 38.76c.349-.755 1.113-1.855 2.469-2.677 1.304-.792 2.443-.894 2.885-.894v22zm4.628-2.808h9.464v-22h-9.464v22zm-1.196-13.714a1.83 1.83 0 01-.411.782l16.838 14.16a23.818 23.818 0 004.893-9.514l-21.32-5.428zm-.506.896c-.112.138-.302.327-.77.54L67.79 62.13c3.345-1.52 6.31-3.723 8.694-6.636L59.457 41.562zm-.77.54c-.308.14-.86.314-1.844.314v22c3.73 0 7.442-.692 10.947-2.286l-9.103-20.028zm-1.844.314c-1.231 0-1.907-.248-2.314-.471L43.973 61.247c4.03 2.204 8.415 3.169 12.87 3.169v-22zm-2.314-.471c-.355-.194-.597-.412-.856-.879l-19.245 10.66c2.238 4.04 5.462 7.288 9.545 9.521l10.556-19.302zm-.856-.879c-.2-.363-.494-1.102-.494-2.574h-22c0 4.56.954 9.09 3.249 13.233l19.245-10.659zm-.494-2.574c0-1.52.297-2.302.505-2.689l-19.37-10.43c-2.219 4.12-3.135 8.608-3.135 13.119h22zm.442-2.575c.259-.466.501-.684.856-.878L43.92 15.737c-4.083 2.233-7.307 5.481-9.545 9.522l19.245 10.658zm.856-.878c.388-.212 1.076-.471 2.366-.471v-22c-4.465 0-8.873.955-12.922 3.169l10.556 19.302zm2.366-.471c1.227 0 1.885.244 2.263.448l10.449-19.36c-3.99-2.154-8.323-3.088-12.712-3.088v22zm2.263.448c.323.175.504.345.705.706l19.231-10.684c-2.225-4.007-5.442-7.2-9.487-9.382l-10.449 19.36zm.77.822c.157.275.423.883.423 2.186h22c0-4.521-.983-9.01-3.322-13.102L59.876 35.837zm13.323-.154c0-4.328-1.627-8.72-5.356-11.953L53.434 40.357a6.658 6.658 0 01-1.736-2.394c-.41-.959-.5-1.782-.5-2.279h22zm-5.356-11.953c-3.308-2.866-7.275-4.039-11.104-4.039v22c-.285 0-.806-.043-1.458-.269a5.688 5.688 0 01-1.846-1.066L67.843 23.73zm-11.104-4.039c-3.786 0-7.618 1.166-10.838 3.85l14.084 16.9a5.57 5.57 0 01-1.75.982 4.694 4.694 0 01-1.496.268v-22zM45.76 23.66c-3.398 2.93-5.015 6.762-5.564 10.37l21.75 3.309c-.026.168-.117.614-.414 1.2a5.91 5.91 0 01-1.407 1.785L45.76 23.66zm5.31 23.024H62.2v-22H51.07v22zm34.152-8.192c0-1.52.297-2.302.505-2.689l-19.37-10.43c-2.219 4.12-3.135 8.608-3.135 13.119h22zm.442-2.575c.283-.51.541-.732.868-.913L75.848 15.772c-4.042 2.246-7.216 5.49-9.429 9.487l19.245 10.658zm.804-.878c.407-.223 1.083-.471 2.314-.471v-22c-4.455 0-8.84.965-12.87 3.169l10.556 19.302zm2.314-.471c1.635 0 2.148.387 2.304.51l13.592-17.3c-4.698-3.69-10.252-5.21-15.896-5.21v22zm2.363.556c.143.11.538.403.83 1.727l21.486-4.727c-1.234-5.608-4.063-10.69-8.843-14.392L91.145 35.124zm11.573-11.636h-9.464v22h9.464v-22zm.887 7.28c-.968-2.696-2.712-5.57-5.684-7.707-2.999-2.156-6.328-2.901-9.295-2.901v22c-.68 0-2.094-.19-3.55-1.237-1.428-1.028-2.003-2.238-2.174-2.715l20.703-7.44zM88.625 20.16c-5.022 0-9.59 2.214-12.67 6.286l17.542 13.276a6.228 6.228 0 01-2.202 1.784c-1.042.514-2.007.654-2.67.654v-22zm-12.582 6.17c-3.052 3.924-3.773 8.508-3.773 12.162h22c0-.453.05-.498-.015-.26-.07.26-.286.884-.846 1.605L76.043 26.331zM72.27 38.493c0 3.683.733 8.198 3.684 12.098l17.543-13.276c.508.671.703 1.242.765 1.477.057.212.008.151.008-.299h-22zm3.773 12.213c3.128 4.022 7.68 6.119 12.583 6.119v-22c.618 0 1.545.127 2.563.615a6.255 6.255 0 012.22 1.76L76.043 50.705zm12.583 6.119c2.967 0 6.296-.745 9.295-2.901 2.972-2.137 4.716-5.011 5.684-7.707l-20.703-7.44c.171-.477.745-1.687 2.175-2.715 1.455-1.046 2.869-1.237 3.549-1.237v22zm4.628-3.328h9.464v-22h-9.464v22zm-1.27-13.41c-.274 1.224-.658 1.579-.914 1.781l13.624 17.274c4.666-3.68 7.506-8.664 8.757-14.236l-21.466-4.818zm-.914 1.781c-.236.186-.766.549-2.288.549v22c5.688 0 11.225-1.578 15.912-5.275L91.07 41.867zm-2.288.549c-1.231 0-1.907-.248-2.314-.471L75.912 61.247c4.03 2.204 8.415 3.169 12.87 3.169v-22zm-2.25-.436c-.326-.181-.585-.403-.868-.913L66.42 51.724c2.213 3.996 5.387 7.241 9.429 9.487L86.532 41.98zm-.805-.8c-.208-.386-.505-1.167-.505-2.688h-22c0 4.511.916 9 3.134 13.12l19.37-10.431zm39.583-6.508c.221 0 .339.018.372.025.03.005-.01 0-.095-.035a1.414 1.414 0 01-.42-.275l16.302-14.774c-4.341-4.79-10.111-6.941-16.159-6.941v22zm-.085-.222c-.12-.13-.127-.211-.08-.072.059.18.189.688.189 1.67h22c0-5.766-1.541-11.739-5.923-16.498l-16.186 14.9zm.109 1.598V53h22V36.048h-22zm11 5.952h-8.84v22h8.84V42zm2.16 11V37.244h-22V53h22zm0-15.756c0-3.818-1.019-8.344-4.475-12.039l-16.066 15.03a5.803 5.803 0 01-1.271-2.1c-.195-.584-.188-.931-.188-.891h22zm-4.475-12.039c-3.412-3.647-7.86-5.097-12.089-5.097v22c-.312 0-.96-.051-1.775-.375a6.163 6.163 0 01-2.202-1.498l16.066-15.03zm-12.089-5.097c-4.229 0-8.677 1.45-12.089 5.097l16.066 15.03a6.163 6.163 0 01-2.202 1.498c-.815.324-1.463.375-1.775.375v-22zm-12.089 5.097c-3.456 3.695-4.475 8.222-4.475 12.039h22c0-.04.007.307-.187.892a5.821 5.821 0 01-1.272 2.099l-16.066-15.03zm-4.475 12.039V53h22V37.244h-22zm11 4.756h-8.892v22h8.892V42zm2.108 11V14.52h-22V53h22zm-11-27.48h8.892v-22h-8.892v22zm-2.108-11v13.364h22V14.52h-22zm20 19.688c-.12.171-.253.31-.371.407-.113.094-.165.112-.106.083l-9.662-19.764c-3.045 1.488-5.781 3.666-7.861 6.626l18 12.648zm-.477.49c-.037.018-.048.017-.007.008.045-.01.18-.034.428-.034v-22c-3.416 0-6.849.68-10.083 2.262l9.662 19.764zm45.875 12.994l-7.592-13.78-19.269 10.616 7.592 13.78 19.269-10.616zM153.537 28.22h-2.132v22h2.132v-22zm-13.132 11V53h22V39.22h-22zm11 2.78h-8.892v22h8.892V42zm2.108 11V16.496h-22V53h22zm-11-25.504h14.924v-22h-14.924v22zm14.924 0c1.633 0 2.296.288 2.413.347l9.838-19.678c-3.904-1.952-8.129-2.669-12.251-2.669v22zm2.48.38c.193.095.207.131.131.061a1.414 1.414 0 01-.265-.336l19.124-10.874c-2.224-3.912-5.509-6.739-9.286-8.595l-9.704 19.744zm-.087-.193l-.002-.004c-.002-.007-.002-.009-.001-.002.002.008.026.1.026.311h22c0-3.942-.944-7.811-2.993-11.343l-19.03 11.038zm.023.305a1.044 1.044 0 01-.007.13c0 .004 0 .002.002-.006a.234.234 0 01.008-.031l.015-.041a1.533 1.533 0 01.021-.044.144.144 0 01-.015.022l17.792 12.94c2.797-3.845 4.184-8.291 4.184-12.97h-22zm-.053.137a1.51 1.51 0 01.313-.321c.04-.027-.092.072-.52.2l6.296 21.08c4.555-1.36 8.826-3.958 11.857-8.233L159.8 28.125zm-6.563 15.957l8.424 14.456 19.008-11.076-8.424-14.456-19.008 11.076zM171.165 42h-10.036v22h10.036V42zm-19.76 1.928h5.512v-22h-5.512v22zm5.512 0c3.245 0 7.791-.79 11.418-4.418l-15.556-15.556a7.272 7.272 0 012.836-1.775c.759-.25 1.256-.251 1.302-.251v22zm11.251-4.254c3.535-3.388 4.637-7.705 4.637-11.322h-22c0-.305.042-.989.369-1.873a7.23 7.23 0 011.772-2.689l15.222 15.884zm4.637-11.322c0-3.729-1.208-7.932-4.637-11.218l-15.222 15.884a7.178 7.178 0 01-1.732-2.61c-.348-.913-.409-1.655-.409-2.056h22zm-4.47-11.054c-3.627-3.627-8.173-4.418-11.418-4.418v22c-.046 0-.543-.001-1.302-.25a7.27 7.27 0 01-2.836-1.776l15.556-15.556zm-11.418-4.418h-5.512v22h5.512v-22zm-16.512 11v9.048h22V23.88h-22zm45.262 14.56c0-1.61.294-2.51.533-2.993l-19.738-9.718c-1.98 4.023-2.795 8.358-2.795 12.711h22zm.472-2.872c.335-.66.578-.807.65-.852l-11.66-18.656c-3.811 2.382-6.653 5.702-8.606 9.548l19.616 9.96zm.65-.852c.113-.07.243-.148.67-.148v-22c-4.357 0-8.56 1.136-12.33 3.492l11.66 18.656zm.67-.148c.278 0 .39.028.377.025a1.51 1.51 0 01-.288-.12l10.534-19.314c-3.405-1.857-7.064-2.591-10.623-2.591v22zm.18-.046c.043.023-.035-.013-.174-.14a2.47 2.47 0 01-.43-.525l18.736-11.53c-1.968-3.198-4.698-5.573-7.78-7.217l-10.352 19.412zm19.764-6.43v-4.108h-22v4.108h22zm-11 6.892h8.892v-22h-8.892v22zm-2.108-11V53h22V23.984h-22zm11 18.016h-8.892v22h8.892V42zm2.108 11v-4.108h-22V53h22zm-20.261-10.044c.107-.166.23-.306.342-.407.109-.098.161-.118.103-.087l10.352 19.412c3.05-1.627 5.742-3.952 7.725-7.046l-18.522-11.872zm.354-.445a1.522 1.522 0 01.288-.12c.013-.003-.099.025-.377.025v22c3.559 0 7.218-.734 10.623-2.591L187.496 42.51zm-.089-.095c-.36 0-.479-.061-.618-.148l-11.66 18.656c3.743 2.34 7.924 3.492 12.278 3.492v-22zm-.5-.073c-.144-.093-.422-.297-.768-.979l-19.616 9.96c1.942 3.825 4.749 7.122 8.488 9.525l11.896-18.506zm-.678-.798c-.269-.555-.562-1.5-.562-3.105h-22c0 4.358.817 8.682 2.766 12.703l19.796-9.598zm21.174-3.053c0-4.36-1.288-9.12-4.988-12.923l-15.768 15.342a4.786 4.786 0 01-1.073-1.703c-.184-.515-.171-.804-.171-.716h22zm-4.881-12.811c-3.294-3.483-7.676-5.365-12.463-5.365v22a4.9 4.9 0 01-1.903-.415 4.921 4.921 0 01-1.616-1.102l15.982-15.118zm-12.463-5.365c-4.778 0-9.118 1.871-12.408 5.253l15.768 15.342c-.3.308-.803.707-1.512 1.009a4.807 4.807 0 01-1.848.396v-22zm-12.411 5.256c-3.717 3.824-4.933 8.607-4.933 12.868h22c0-.121.018.154-.163.67a4.99 4.99 0 01-1.13 1.798l-15.774-15.336zm-4.933 12.868c0 4.29 1.225 8.952 4.729 12.756l16.182-14.904c.47.51.78 1.076.948 1.568.157.457.141.696.141.58h-22zm4.936 12.975c3.29 3.382 7.63 5.253 12.408 5.253v-22c.477 0 1.136.094 1.848.396.709.302 1.212.7 1.512 1.01l-15.768 15.34zm12.408 5.253c4.787 0 9.169-1.882 12.463-5.365L186.54 36.185a4.92 4.92 0 011.616-1.102 4.9 4.9 0 011.903-.415v22zm12.356-5.253c3.7-3.803 4.988-8.564 4.988-12.923h-22c0 .088-.013-.201.171-.716a4.786 4.786 0 011.073-1.703l15.768 15.342zM220.96 38.44c0-1.61.294-2.51.533-2.993l-19.738-9.718c-1.98 4.023-2.795 8.358-2.795 12.711h22zm.472-2.872c.335-.66.578-.807.65-.852l-11.66-18.656c-3.811 2.382-6.653 5.702-8.606 9.548l19.616 9.96zm.65-.852c.113-.07.243-.148.67-.148v-22c-4.357 0-8.56 1.136-12.33 3.492l11.66 18.656zm.67-.148c.183 0 .262.019.264.02.003 0-.005-.002-.021-.008a.375.375 0 01-.049-.021l10.012-19.59c-3.244-1.658-6.716-2.401-10.206-2.401v22zm.281.035c.051.026-.009.002-.127-.1a2.092 2.092 0 01-.363-.413l18.306-12.204c-2.065-3.096-4.842-5.393-7.978-6.96l-9.838 19.677zm19.663-6.615V14.52h-22v13.468h22zm-11-2.468h8.892v-22h-8.892v22zm-2.108-11V53h22V14.52h-22zm11 27.48h-8.892v22h8.892V42zm2.108 11v-4.16h-22V53h22zm-20.432-9.82c.122-.204.274-.388.43-.533.152-.14.251-.192.237-.185l10.353 19.412c3.15-1.68 5.892-4.12 7.844-7.375L222.264 43.18zm.577-.669a1.522 1.522 0 01.288-.12c.013-.003-.099.025-.377.025v22c3.559 0 7.218-.734 10.623-2.591L222.841 42.51zm-.089-.095c-.427 0-.557-.078-.67-.148l-11.66 18.656c3.77 2.356 7.973 3.492 12.33 3.492v-22zm-.552-.073c-.144-.093-.422-.297-.768-.979l-19.616 9.96c1.941 3.825 4.749 7.122 8.488 9.525L222.2 42.343zm-.678-.798c-.269-.555-.562-1.5-.562-3.105h-22c0 4.358.816 8.682 2.766 12.703l19.796-9.598zm21.174-3.053c0-4.36-1.288-9.12-4.988-12.923L221.94 40.911a4.803 4.803 0 01-1.074-1.703c-.183-.515-.17-.804-.17-.716h22zm-4.881-12.811c-3.294-3.483-7.676-5.365-12.463-5.365v22a4.9 4.9 0 01-1.903-.415 4.921 4.921 0 01-1.616-1.102l15.982-15.118zm-12.463-5.365c-4.778 0-9.118 1.871-12.408 5.253l15.768 15.342c-.3.308-.803.707-1.512 1.009a4.807 4.807 0 01-1.848.396v-22zm-12.411 5.256c-3.717 3.824-4.933 8.607-4.933 12.868h22c0-.121.018.154-.163.67a4.99 4.99 0 01-1.13 1.798l-15.774-15.336zm-4.933 12.868c0 4.29 1.225 8.952 4.729 12.756l16.182-14.904c.47.51.78 1.076.948 1.568.157.457.141.696.141.58h-22zm4.936 12.975c3.29 3.382 7.63 5.253 12.408 5.253v-22c.477 0 1.136.094 1.848.396.709.302 1.212.7 1.512 1.01l-15.768 15.34zm12.408 5.253c4.787 0 9.169-1.882 12.463-5.365l-15.982-15.118a4.92 4.92 0 011.616-1.102 4.9 4.9 0 011.903-.415v22zm12.356-5.253c3.7-3.803 4.988-8.564 4.988-12.923h-22c0 .088-.013-.201.17-.716a4.803 4.803 0 011.074-1.703l15.768 15.342zm13.785-41.447c.282 0 .825.042 1.514.284.713.25 1.4.652 1.981 1.174l-14.686 16.38c3.334 2.99 7.369 4.162 11.191 4.162v-22zm3.787 1.73a6.284 6.284 0 011.399 2.062c.383.902.51 1.755.51 2.424h-22c0 4.33 1.693 8.335 4.82 11.35l15.271-15.836zm1.909 4.486c0 .612-.113 1.462-.51 2.398a6.553 6.553 0 01-1.549 2.23l-14.97-16.12c-3.328 3.09-4.971 7.208-4.971 11.492h22zm-2.048 4.619a5.992 5.992 0 01-2.01 1.23 4.87 4.87 0 01-1.638.315v-22c-3.935 0-8.023 1.262-11.344 4.353l14.992 16.102zm-3.648 1.545a5.16 5.16 0 01-1.782-.35c-.8-.3-1.526-.765-2.11-1.328l15.271-15.836c-3.295-3.178-7.411-4.486-11.379-4.486v22zm-3.599-1.406a6.552 6.552 0 01-1.597-2.231 6.361 6.361 0 01-.552-2.527h22c0-4.416-1.762-8.571-5.165-11.622l-14.686 16.38zm-2.149-4.758c0-.721.142-1.619.552-2.553.409-.93.96-1.615 1.444-2.066l14.992 16.102c3.199-2.98 5.012-7.022 5.012-11.483h-22zm2.007-4.629a6.169 6.169 0 012.085-1.271c.739-.267 1.332-.316 1.656-.316v22c3.851 0 7.916-1.215 11.229-4.291l-14.97-16.122zm-2.839 12.429V53h22V23.984h-22zm11 18.016h-8.892v22h8.892V42zm2.108 11V23.984h-22V53h22zm-11-18.016h8.892v-22h-8.892v22zm41.548 11.767l-5.564-8.06L264.9 51.189l5.564 8.06 18.105-12.498zm-24.129-7.334l-4.68 8.06 19.026 11.047 4.68-8.06-19.026-11.047zM269.273 42h-9.62v22h9.62V42zm-.379 16.966l9.568-14.82-18.483-11.932-9.567 14.82 18.482 11.932zm9.371-27.047l-9.828-14.196-18.088 12.522 9.828 14.196 18.088-12.522zm-18.872 3.065h9.984v-22h-9.984v22zm.95-4.724l5.564 8.009 18.067-12.554-5.564-8.008-18.067 12.553zm24.095 7.282l4.68-8.008-18.994-11.1-4.68 8.008 18.994 11.1zm-4.817-2.558h9.62v-22h-9.62v22zm.462-17.094l-9.724 14.612 18.315 12.188 9.724-14.612-18.315-12.188zm-9.607 26.972l9.984 14.404 18.081-12.532-9.984-14.404-18.081 12.532zM289.501 42h-9.984v22h9.984V42z" mask="url(#a)"/>
  <defs>
    <linearGradient id="paint0_linear_73_5" x1="60.352" x2="271.244" y1="32.382" y2="32.382" gradientUnits="userSpaceOnUse">
      <stop stop-color="#274EB7"/>
      <stop offset="1" stop-color="#7F55A2"/>
    </linearGradient>
    <linearGradient id="paint1_linear_73_5" x1="60.352" x2="271.244" y1="32.382" y2="32.382" gradientUnits="userSpaceOnUse">
      <stop stop-color="#274EB7"/>
      <stop offset="1" stop-color="#7F55A2"/>
    </linearGradient>
    <linearGradient id="paint2_linear_73_5" x1="60.352" x2="271.244" y1="32.382" y2="32.382" gradientUnits="userSpaceOnUse">
      <stop stop-color="#274EB7"/>
      <stop offset="1" stop-color="#7F55A2"/>
    </linearGradient>
    <linearGradient id="paint3_linear_73_5" x1="60.352" x2="271.244" y1="32.382" y2="32.382" gradientUnits="userSpaceOnUse">
      <stop stop-color="#274EB7"/>
      <stop offset="1" stop-color="#7F55A2"/>
    </linearGradient>
    <linearGradient id="paint4_linear_73_5" x1="60.352" x2="271.244" y1="32.382" y2="32.382" gradientUnits="userSpaceOnUse">
      <stop stop-color="#274EB7"/>
      <stop offset="1" stop-color="#7F55A2"/>
    </linearGradient>
    <linearGradient id="paint5_linear_73_5" x1="60.352" x2="271.244" y1="32.382" y2="32.382" gradientUnits="userSpaceOnUse">
      <stop stop-color="#274EB7"/>
      <stop offset="1" stop-color="#7F55A2"/>
    </linearGradient>
    <linearGradient id="paint6_linear_73_5" x1="60.352" x2="271.244" y1="32.382" y2="32.382" gradientUnits="userSpaceOnUse">
      <stop stop-color="#274EB7"/>
      <stop offset="1" stop-color="#7F55A2"/>
    </linearGradient>
    <linearGradient id="paint7_linear_73_5" x1="60.352" x2="271.244" y1="32.382" y2="32.382" gradientUnits="userSpaceOnUse">
      <stop stop-color="#274EB7"/>
      <stop offset="1" stop-color="#7F55A2"/>
    </linearGradient>
    <linearGradient id="paint8_linear_73_5" x1="60.352" x2="271.244" y1="32.382" y2="32.382" gradientUnits="userSpaceOnUse">
      <stop stop-color="#274EB7"/>
      <stop offset="1" stop-color="#7F55A2"/>
    </linearGradient>
  </defs>
</svg>
